<svg xmlns="http://www.w3.org/2000/svg" width="282.921" height="89.799" viewBox="0 0 282.921 89.799">
  <g id="Groupe_5" data-name="Groupe 5" transform="translate(-484.313 -294)">
    <g id="Groupe_4" data-name="Groupe 4" transform="translate(484.313 294)">
      <g id="Groupe_1" data-name="Groupe 1" transform="translate(0 0)">
        <path id="Tracé_1" data-name="Tracé 1" d="M125.154,174.242h-.605c-.1.018-.208.018-.311.035a.227.227,0,0,0-.1.017c-.087.018-.19.034-.294.052l-.363.1a5.31,5.31,0,0,0-1.626.814l-2.266,1.66c-.26.155-.484.312-.727.484-.224.173-.45.346-.657.519l-7.715,5.95a5.334,5.334,0,0,1-6.677-.1L89.019,171.509a4.635,4.635,0,0,1-.951-.8,4.5,4.5,0,0,1-1.228-3.113,4.566,4.566,0,0,1,1.125-2.992,3.332,3.332,0,0,1,.622-.588,4.556,4.556,0,0,1,5.639-.052,2,2,0,0,1,.294.242l9.03,7.7a5.343,5.343,0,0,0,6.936-8.13l-29.2-24.857a5.338,5.338,0,0,0-8.8,4.065l-.01,28.525,31.562,25.636,2.837,2.283,2.3-1.851,19.547-15.62a4.668,4.668,0,0,0,1.02-2.941A4.77,4.77,0,0,0,125.154,174.242Z" transform="translate(-72.472 -109.629)" fill="#1f4791"/>
        <path id="Tracé_2" data-name="Tracé 2" d="M90.753,129.5h.606c.1-.018.208-.018.311-.035a.223.223,0,0,0,.1-.017c.087-.018.191-.034.294-.052l.363-.1a5.3,5.3,0,0,0,1.626-.814l2.266-1.66c.259-.155.484-.312.726-.484.225-.173.45-.346.657-.519l7.715-5.95a5.333,5.333,0,0,1,6.676.1l14.79,12.264a4.68,4.68,0,0,1,.952.8,4.5,4.5,0,0,1,1.228,3.113,4.57,4.57,0,0,1-1.125,2.992,3.335,3.335,0,0,1-.623.588,4.556,4.556,0,0,1-5.639.052,2.05,2.05,0,0,1-.294-.242l-9.029-7.7a5.343,5.343,0,0,0-6.936,8.13l29.2,24.857a5.338,5.338,0,0,0,8.8-4.065l.01-28.525L111.875,106.6l-2.837-2.283-2.3,1.851L87.19,121.788a4.663,4.663,0,0,0-1.02,2.941A4.769,4.769,0,0,0,90.753,129.5Z" transform="translate(-74.656 -104.317)" fill="#1f4791"/>
      </g>
      <g id="Groupe_3" data-name="Groupe 3" transform="translate(82.165 35.922)">
        <path id="Tracé_3" data-name="Tracé 3" d="M143.123,225.828a5.475,5.475,0,0,0-4.757-2.434h-1.9a5.225,5.225,0,0,0-5.1,3.168v.007a3.436,3.436,0,0,0-.166,1.051v8.526a3.362,3.362,0,0,0,.3,1.4,4.823,4.823,0,0,0,2.977,2.509,6.366,6.366,0,0,0,1.988.317h1.9c2.894,0,5.263-1.9,5.263-4.226V227.62a3.463,3.463,0,0,0-.5-1.784C143.131,225.828,143.131,225.828,143.123,225.828Zm-3.684,10.423a1.633,1.633,0,0,1-1.771,1.421h-.524a1.633,1.633,0,0,1-1.771-1.421v-8.6a1.634,1.634,0,0,1,1.771-1.421h.524a1.634,1.634,0,0,1,1.771,1.421Z" transform="translate(-6.381 -223.076)" fill="#1f4791"/>
        <path id="Tracé_4" data-name="Tracé 4" d="M95.078,223.239l-3.211,17.385h5.366L99.15,227.91l1.871,12.714h5.339l-3.192-17.385Z" transform="translate(-21.012 -223.134)" fill="#1f4791"/>
        <path id="Tracé_5" data-name="Tracé 5" d="M151.594,223.523l-2.219,14.7H149.3l-2.164-14.7H142.6l3.049,16.606h7.441l3.067-16.606Z" transform="translate(-2.14 -223.028)" fill="#1f4791"/>
        <path id="Tracé_6" data-name="Tracé 6" d="M86.447,223.239,84.74,233.819l-1.7-10.581H75.5l-.385,17.385h5.028l.075-11.111,2.057,11.111H87.2l2.07-11.117.077,11.117h5.012l-.383-17.385Z" transform="translate(-27.244 -223.134)" fill="#1f4791"/>
        <path id="Tracé_7" data-name="Tracé 7" d="M44.669,227.93a2,2,0,0,1-.019-.834,1.3,1.3,0,0,1,1.442-1.056,1.331,1.331,0,0,1,1.465,1.428v1.058h4.189v-1.2a3.791,3.791,0,0,0-1.029-2.791c-.915-.916-2.444-1.375-4.541-1.375-2.346,0-5.262.632-5.754,3.669a5.607,5.607,0,0,0,.04,2.22c.708,3.35,6.528,4.362,7.353,6.428a2.1,2.1,0,0,1,.029,1.179,1.372,1.372,0,0,1-1.541,1.056,1.413,1.413,0,0,1-1.592-1.431l0-1.634h-4.48l0,1.312c0,3.217,2.287,4.8,5.986,4.8,2.227,0,5.377-.561,5.834-3.777a8.132,8.132,0,0,0-.018-2.7C51.344,230.9,45.118,229.772,44.669,227.93Z" transform="translate(-40.224 -223.162)" fill="#1f4791"/>
        <path id="Tracé_8" data-name="Tracé 8" d="M115.1,233.754,112.037,223.3h-6.9v17.217h4.943l-.186-11.005,3.35,11.005h6.642V223.3h-4.973Z" transform="translate(-16.074 -223.111)" fill="#1f4791"/>
        <path id="Tracé_9" data-name="Tracé 9" d="M119.059,227.184h4.456v12.838h4.16l-.062-12.838h4.76v-3.6H119.059Z" transform="translate(-10.897 -223.005)" fill="#1f4791"/>
        <path id="Tracé_10" data-name="Tracé 10" d="M62.961,236.345H56.854l-.047-2.688h6.154v-3.6H56.753l-.047-2.875h6.255v-3.6h-10.2v16.157h0v.389h10.2v-.389h0Z" transform="translate(-35.559 -223.005)" fill="#1f4791"/>
        <path id="Tracé_11" data-name="Tracé 11" d="M73.749,236.345H67.642l-.047-2.688h6.154v-3.6H67.541l-.047-2.875h6.255v-3.6h-10.2v16.157h0v.389h10.2v-.389h0Z" transform="translate(-31.546 -223.005)" fill="#1f4791"/>
        <g id="Groupe_2" data-name="Groupe 2" transform="translate(154.753 0.495)">
          <path id="Tracé_12" data-name="Tracé 12" d="M165.3,226.676c-.5,0-.818.273-.818.991v5.428c0,.718.316.992.818.992s.819-.274.819-.992v-5.428C166.118,226.949,165.8,226.676,165.3,226.676Z" transform="translate(-148.752 -222.35)" fill="#1f4791"/>
          <path id="Tracé_13" data-name="Tracé 13" d="M155.509,223.523l-2.492,16.605h42.937l3.066-16.605Zm5.236,13.056h-1.522v-1.522h1.522Zm5.587-6.662h-1.493V228.84c0-.718-.317-.991-.819-.991s-.818.273-.818.991v5.428c0,.718.316.977.818.977s.819-.259.819-.977v-1.435h1.493v1.335c0,1.608-.8,2.527-2.354,2.527s-2.356-.919-2.356-2.527V228.94c0-1.608.8-2.527,2.356-2.527s2.354.919,2.354,2.527Zm5.631,4.251a2.4,2.4,0,1,1-4.8,0V228.94a2.4,2.4,0,1,1,4.8,0Zm7.642,2.412H178.11V229.37h-.029l-1.062,7.209h-1.494l-1.148-7.107h-.029v7.107h-1.379V226.528h2.2l1.148,7.136h.029l1.062-7.136h2.2Zm2.673,0h-1.522v-1.522h1.522Zm4.71-8.615h-1.651v8.615h-1.579v-8.615H182.1v-1.437h4.882Zm5.688,8.615h-1.622l-1.939-7.28h-.029v7.28h-1.421V226.528h1.981l1.594,6.016h.029v-6.016h1.406Z" transform="translate(-153.017 -223.523)" fill="#1f4791"/>
        </g>
      </g>
    </g>
  </g>
</svg>
